# xmcd
#
# Track frame offsets:
# 150
# 15525
# 28950
# 47491
# 59566
# 78874
# 93650
# 105037
# 119775
# 131963
# 146138
# 161754
# 176379
# 195505
# 206899
# 226151
# 238904
# 253572
# 271497
# 284166
# 294292
# 307868
# 329543
# 344789
#
# Disc length: 4770 seconds
#
#
# Revision: 0
# Processed by: cddbd v1.5.2PL0 Copyright (c) Steve Scherf et al.
# Submitted via: FreeRIP 2.951 
#
DISCID=7212a018
DTITLE=Gene Clark - Tribute - The World Turns All Around Him
DYEAR=2005
DGENRE=Crossover
TTITLE0=Hopewell - With Tomorrow
TTITLE1=The Digs - Is Yours Is Mine
TTITLE2=The Green Fields - Here Tonight
TTITLE3=Reno Bo - Ill Feel A Whole Lot Better
TTITLE4=The Martial Arts - Why Not Your Baby
TTITLE5=Ashley Park - Tried So Hard
TTITLE6=Only Joe Kane - I Found You
TTITLE7=Locksley - Its No Use
TTITLE8=The Shorebirds - Elevator Operator
TTITLE9=Lisa Marr Experiment - Los Angeles
TTITLE10=Ol Yeller - Somethings Wrong
TTITLE11=Shade Tree - Here Without You
TTITLE12=Grand Mal - Winter In
TTITLE13=Joe Algeri and Grant Ferstat - You Showed Me
TTITLE14=Coydogs - Kansas City Southern
TTITLE15=Music Magic - So You Say You Lost Your Baby
TTITLE16=Baby Grand - Eight Miles High
TTITLE17=Peter Morn - Spanish Guitar
TTITLE18=The Quarter After - One In A Hundred
TTITLE19=Hello Saferide and Maia Hirasawa - Hes The Kind Of Boy
TTITLE20=Thomas Denver Jonsson - Set You Free This Time
TTITLE21=The Autumn Leaves - She Dont Care About Time
TTITLE22=EPs Trailer Park - The Radio Song
TTITLE23=Jon Bergstrm - With Tomorrow
EXTD=From Sweden, *excellent* new tribute to Gene Clark, one of the finest songwriters in rock` n roll the last 40 years and he`s had a few tributes released to celebrate his special talents. Now, from Sweden`s Groover Recordings label comes the latest t
EXTD=ribute and Not Lame has another truly special deal set up for you if you pick up "The World Turns All Around Him", a tribute to Gene Clark from Not Lame.
EXTT0=
EXTT1=
EXTT2=
EXTT3=
EXTT4=
EXTT5=
EXTT6=
EXTT7=
EXTT8=
EXTT9=
EXTT10=
EXTT11=
EXTT12=
EXTT13=
EXTT14=
EXTT15=
EXTT16=
EXTT17=
EXTT18=
EXTT19=
EXTT20=
EXTT21=
EXTT22=
EXTT23=
PLAYORDER=
